<svg width="121" height="30" viewBox="0 0 121 30" fill="none" xmlns="http://www.w3.org/2000/svg">
<g clip-path="url(#clip0_47_622)">
<path d="M11.395 0.80249L3.97168 23.1974H8.33288L10.43 16.6624H16.4614L18.6142 23.1974H23.0682L15.6263 0.80249H11.395ZM15.4036 12.9363H11.5063L13.1395 8.00631C13.2508 7.66236 13.3622 7.33752 13.455 7.01268C13.5663 7.35663 13.6591 7.70058 13.789 8.06364L15.4036 12.9363Z" fill="#C4C0C0"/>
<path d="M30.3988 12.9937C28.3945 12.172 28.1718 11.7899 28.1718 11.1975C28.1718 10.4332 28.7842 9.97457 29.7864 9.97457C30.9555 9.97457 31.8835 10.4523 32.3289 10.7389L33.1825 11.293L34.3146 7.7389L33.795 7.39495C32.8114 6.72616 31.3267 6.34399 29.8235 6.34399C26.4644 6.34399 24.0333 8.52234 24.0333 11.5414C24.0333 14.3121 26.4088 15.7835 28.4131 16.5287C30.3988 17.293 30.5658 17.8281 30.5658 18.4778C30.5658 19.7007 29.3224 19.8727 28.5801 19.8727C27.4295 19.8727 26.1861 19.3758 25.4808 18.9364L24.6272 18.4204L23.5137 22.0319L24.0519 22.3567C25.2767 23.102 26.9098 23.5223 28.5244 23.5223C32.2175 23.5223 34.7043 21.3822 34.7043 18.2102C34.7043 15.0192 32.2361 13.7007 30.3988 12.9937Z" fill="#C4C0C0"/>
<path d="M41.2551 2.78979L37.0981 4.08916V6.64967H34.8525V10.3376H37.0981V17.656C37.0981 19.7006 37.4878 21.1528 38.3229 22.1274C39.1395 23.0255 40.3458 23.5414 41.7562 23.5414C43.0182 23.5414 43.9275 23.2739 44.3544 23.121L44.9111 22.9299L44.6884 19.2229L43.7234 19.5095C43.445 19.586 43.111 19.6624 42.4243 19.6624C41.9232 19.6624 41.2366 19.6624 41.2366 17.5796V10.3376H45.0039V6.64967H41.2551V2.78979Z" fill="#C4C0C0"/>
<path d="M55.1555 6.49692L54.3946 6.38227C54.1719 6.34406 53.9492 6.32495 53.6523 6.32495C52.3347 6.32495 51.1284 6.87909 50.2005 7.85361L50.1448 6.64979H46.2476L46.3032 7.50966C46.3775 8.78992 46.4331 10.2421 46.4331 12.1148V23.1976H50.6459V14.446C50.6459 14.0447 50.683 13.6243 50.7201 13.3377C51.0356 11.6179 52.0749 10.5479 53.4853 10.5479C53.8193 10.5479 54.0235 10.5479 54.2091 10.5861L55.1741 10.7963L55.1555 6.49692Z" fill="#C4C0C0"/>
<path d="M62.8199 6.34399C58.1247 6.34399 54.8398 9.91724 54.8398 15.0574C54.8398 20.0637 58.0133 23.5414 62.5786 23.5414C66.4388 23.5414 70.5773 20.809 70.5773 14.809C70.5958 9.8217 67.4038 6.34399 62.8199 6.34399ZM66.3274 14.9045C66.3274 17.7899 64.8056 19.8918 62.7271 19.8918C60.6486 19.8918 59.1454 17.809 59.1454 14.9809C59.1454 13.1465 59.9063 10.0319 62.7828 10.0319C65.5851 9.99368 66.3274 13.2039 66.3274 14.9045Z" fill="#C4C0C0"/>
<path d="M84.4032 2.5796C83.0299 1.29934 80.9328 0.649658 78.2233 0.649658C76.4046 0.649658 74.6787 0.783417 73.0826 1.05093L72.4331 1.16558V23.1974H76.6087V15.0191C77.0356 15.0573 77.481 15.0764 77.9264 15.0764C80.7472 15.0764 83.1412 14.1783 84.663 12.5541C85.8507 11.293 86.4446 9.61144 86.4446 7.54775C86.426 5.54138 85.7023 3.78342 84.4032 2.5796ZM82.2504 7.68151C82.2504 10.8153 79.578 11.2739 77.982 11.2739C77.4438 11.2739 76.9984 11.2548 76.6273 11.1974V4.47131C77.0356 4.41399 77.5923 4.39488 78.2975 4.39488C80.0791 4.39488 82.2504 4.96813 82.2504 7.68151Z" fill="#C4C0C0"/>
<path d="M99.2315 18.8026V13.223C99.2315 8.77075 96.9859 6.34399 92.9402 6.34399C91.0659 6.34399 89.0987 6.87903 87.7439 7.75801L87.2057 8.10196L88.3378 11.5414L89.1915 10.9491C90.0637 10.3376 91.3257 9.97457 92.5505 9.97457C93.4042 9.95546 94.0166 10.1657 94.4249 10.5669C94.759 10.9109 94.9631 11.4268 95.0373 12.0765C91.7525 12.172 89.3585 12.9746 87.8738 14.4841C86.8531 15.5351 86.3335 16.8535 86.3335 18.4395C86.3335 20.9809 88.1151 23.5414 91.5669 23.5414C93.033 23.5414 94.4063 23.0637 95.4827 22.223L95.5941 23.2166H99.5841L99.4356 22.2803C99.3057 21.3631 99.2315 20.1975 99.2315 18.8026ZM92.2165 19.9109C91.5855 19.9109 90.5462 19.6816 90.5462 18.1338C90.5462 17.5414 90.7132 17.0637 91.0844 16.7007C91.5669 16.2039 92.6619 15.6306 95.1116 15.5924V17.3695C95.1116 17.5032 95.093 17.7325 95.0373 17.9618C94.7404 18.8599 93.831 19.9109 92.2165 19.9109Z" fill="#C4C0C0"/>
<path d="M110.83 6.64966L107.768 15.9554C107.694 16.1847 107.62 16.4331 107.546 16.6624C107.471 16.4331 107.397 16.2038 107.304 15.9936L103.964 6.64966H99.3799L105.133 21.4968L105.152 21.535C105.244 21.7261 105.281 21.8407 105.281 21.879C105.244 21.9554 105.189 22.1083 105.152 22.2038C104.65 23.293 103.908 24.3248 103.166 24.9363L103.147 24.9554C102.312 25.7006 101.458 26.0255 101.106 26.121L100.363 26.3694L101.44 30.0764L102.127 29.9427C102.553 29.8662 104.038 29.5032 105.745 28.0318C107.787 26.1592 109.142 23.1974 110.923 18.3821L115.284 6.64966H110.83Z" fill="#C4C0C0"/>
<path d="M19.3378 6.95541C22.0473 4.10828 26.6497 2.40764 31.6419 2.40764C33.5905 2.40764 35.4835 2.65605 37.2836 3.17198L37.4321 3.21019L40.6241 2.21656L39.1951 1.64331C36.4671 0.57325 33.3307 0 30.1016 0C25.4063 0 21.0266 1.1656 17.7789 3.28662L17.4263 3.51592L18.781 7.58599L19.3378 6.95541Z" fill="#C4C0C0"/>
</g>
<defs>
<clipPath id="clip0_47_622">
<rect width="121" height="30" fill="white"/>
</clipPath>
</defs>
</svg>
