<svg width="79" height="24" viewBox="0 0 79 24" fill="none" xmlns="http://www.w3.org/2000/svg">
<g clip-path="url(#clip0_47_347)">
<g clip-path="url(#clip1_47_347)">
<g clip-path="url(#clip2_47_347)">
<path d="M16.195 10.2883C15.1417 14.6333 10.665 17.3983 6.18832 16.2133C1.84332 15.16 -0.790009 10.6833 0.263325 6.20663C1.31666 1.86164 5.79332 -0.771698 10.27 0.281635C14.615 1.33497 17.38 5.81164 16.195 10.2883ZM11.85 7.1283C11.9817 5.9433 11.1917 5.41664 10.0067 5.02164L10.4017 3.5733L9.47999 3.30997L9.21666 4.7583C8.95332 4.62664 8.68999 4.62664 8.42666 4.62664L8.82166 3.1783L7.89999 2.91497L7.50499 4.3633C7.37332 4.3633 7.10999 4.23164 6.97832 4.23164L5.66166 3.9683L5.52999 4.88997L6.18832 5.02164C6.45166 5.1533 6.58332 5.41664 6.58332 5.5483L6.18832 7.25997L5.52999 9.62997C5.52999 9.76163 5.39832 9.8933 5.13499 9.8933L4.47666 9.76163L3.94999 10.6833L5.13499 11.0783C5.39832 11.0783 5.66166 11.21 5.79332 11.21L5.39832 12.6583L6.31999 12.9216L6.71499 11.4733C6.97832 11.4733 7.24166 11.605 7.50499 11.605L7.10999 13.0533L8.03166 13.3166L8.42666 11.8683C9.87499 12.1316 11.06 12 11.5867 10.5516C11.9817 9.4983 11.5867 8.83997 10.665 8.44497C11.3233 8.3133 11.7183 7.9183 11.85 7.1283ZM9.87499 10.025C9.47999 11.0783 7.63666 10.5516 6.97832 10.42L7.50499 8.3133C8.16332 8.57663 10.1383 8.83997 9.87499 10.025ZM10.1383 7.1283C9.87499 8.04997 8.29499 7.5233 7.76832 7.39163L8.16332 5.67997C8.68999 5.81164 10.4017 6.07497 10.1383 7.1283Z" fill="#C4C0C0"/>
<path d="M24.2266 5.02164C24.8849 5.02164 25.4116 5.15331 25.9383 5.41664C26.3333 5.54831 26.7283 5.94331 27.1233 6.33831C27.3866 6.73331 27.6499 7.25998 27.7816 7.78664C27.9133 8.31331 28.0449 8.83998 28.0449 9.49831C28.0449 10.42 27.9133 11.3416 27.5183 12.2633C27.1233 13.0533 26.7283 13.8433 26.0699 14.5016C25.4116 15.0283 24.7533 15.555 23.9633 15.95C23.0416 16.345 22.1199 16.4766 21.1983 16.4766C21.0666 16.4766 20.8033 16.4766 20.5399 16.4766C20.2766 16.4766 19.8816 16.4766 19.4866 16.345C19.0916 16.345 18.5649 16.2133 18.1699 16.2133C17.7749 16.0816 17.2483 15.95 16.8533 15.6866L20.5399 0.544977L23.6999 0.0183105L22.3833 5.41664C22.7783 5.28498 23.0416 5.15331 23.3049 5.15331C23.5683 5.02164 23.8316 5.02164 24.2266 5.02164ZM21.4616 13.975C21.9883 13.975 22.3833 13.8433 22.7783 13.58C23.3049 13.3166 23.6999 13.0533 23.9633 12.6583C24.2266 12.2633 24.4899 11.7366 24.7533 11.3416C24.8849 10.815 25.0166 10.2883 25.0166 9.76164C25.0166 9.10331 24.8849 8.57664 24.6216 8.18164C24.3583 7.78664 23.9633 7.65498 23.4366 7.65498C23.1733 7.65498 22.9099 7.65498 22.6466 7.65498C22.3833 7.78664 21.9883 7.91831 21.7249 8.18164L20.4083 13.8433H20.6716C20.6716 13.975 20.8033 13.975 20.8033 13.975H21.0666H21.4616Z" fill="#C4C0C0"/>
<path d="M31.4683 16.2134H28.3083L30.9417 5.28507H34.1017L31.4683 16.2134ZM32.9167 3.9684C32.5217 3.9684 32.1267 3.83674 31.7317 3.5734C31.3367 3.31007 31.205 2.91507 31.205 2.3884C31.205 1.9934 31.3367 1.73007 31.3367 1.46674C31.4683 1.2034 31.7317 1.07174 31.8633 0.808405C32.1267 0.676738 32.2583 0.545072 32.5217 0.413405C32.785 0.281738 33.0483 0.281738 33.3117 0.281738C33.8383 0.281738 34.2333 0.413405 34.4967 0.676738C34.8917 0.940072 35.0234 1.2034 35.0234 1.86174C35.0234 2.12507 35.0234 2.3884 34.8917 2.65174C34.76 2.91507 34.6284 3.04674 34.365 3.31007C34.2333 3.44174 33.97 3.5734 33.7067 3.70507C33.4433 3.83674 33.18 3.9684 32.9167 3.9684Z" fill="#C4C0C0"/>
<path d="M36.735 2.52007L40.0267 1.99341L39.2367 5.28508H42.66L42.0017 7.78674H38.5783L37.6567 11.6051C37.525 12.0001 37.525 12.2634 37.525 12.5267C37.525 12.7901 37.525 13.0534 37.6567 13.1851C37.6567 13.4484 37.7883 13.5801 38.0517 13.7117C38.315 13.8434 38.5783 13.8434 38.9733 13.8434H40.0267C40.29 13.7117 40.5533 13.5801 40.9483 13.5801L41.2117 15.9501C40.685 16.0817 40.29 16.2134 39.7633 16.3451C39.3683 16.4767 38.71 16.4767 38.0517 16.4767C37.13 16.4767 36.34 16.3451 35.8133 16.0817C35.2867 15.8184 34.8917 15.4234 34.76 14.8967C34.4967 14.3701 34.365 13.8434 34.365 13.1851C34.4967 12.5267 34.4967 11.8684 34.76 11.2101L36.735 2.52007Z" fill="#C4C0C0"/>
<path d="M42.5283 11.8682C42.5283 10.9466 42.66 10.0249 42.9233 9.10323C43.3183 8.31323 43.7133 7.65489 44.24 6.99656C44.8983 6.33823 45.5567 5.81156 46.3467 5.54823C47.1367 5.15323 48.0583 4.88989 49.1117 4.88989C49.77 4.88989 50.2967 5.02156 50.8233 5.15323C51.2183 5.28489 51.745 5.41656 52.14 5.54823L51.0867 8.04989C50.8233 7.91823 50.4283 7.78656 50.165 7.65489C49.9017 7.65489 49.5067 7.52323 49.1117 7.52323C48.0583 7.52323 47.2683 7.91823 46.61 8.70823C46.0833 9.36656 45.6883 10.2882 45.6883 11.4732C45.6883 12.2632 45.82 12.7899 46.215 13.1849C46.4783 13.7116 47.005 13.8432 47.9267 13.8432C48.3217 13.8432 48.7167 13.8432 49.1117 13.7116C49.375 13.7116 49.77 13.5799 50.0333 13.4482L50.2967 15.9499C49.9017 16.0816 49.5067 16.2132 48.98 16.3449C48.4533 16.4766 47.9267 16.4766 47.2683 16.4766C46.4783 16.4766 45.6883 16.3449 45.1617 16.0816C44.5033 15.9499 43.9767 15.5549 43.5817 15.1599C43.1867 14.7649 42.9233 14.2382 42.7917 13.5799C42.66 13.0532 42.5283 12.5266 42.5283 11.8682Z" fill="#C4C0C0"/>
<path d="M56.2217 16.4766C55.5634 16.4766 54.905 16.3449 54.3784 16.2132C53.72 15.9499 53.325 15.6866 52.93 15.2916C52.6667 14.8966 52.4034 14.3699 52.14 13.8432C52.0084 13.3166 51.8767 12.6582 51.8767 11.9999C51.8767 11.2099 52.0084 10.2882 52.2717 9.49823C52.535 8.70823 52.93 7.91823 53.4567 7.25989C53.9834 6.60156 54.6417 6.07489 55.4317 5.54823C56.2217 5.15323 57.1434 4.88989 58.065 4.88989C58.855 4.88989 59.3817 5.02156 60.04 5.28489C60.5667 5.54823 60.9617 5.81156 61.3567 6.20656C61.7517 6.60156 62.015 7.12823 62.1467 7.65489C62.2784 8.18156 62.41 8.83989 62.41 9.49823C62.41 10.2882 62.2784 11.2099 62.015 11.9999C61.7517 12.7899 61.3567 13.5799 60.83 14.2382C60.3034 14.8966 59.645 15.4232 58.9867 15.8182C58.1967 16.3449 57.275 16.4766 56.2217 16.4766ZM57.8017 7.52323C57.275 7.52323 56.88 7.65489 56.6167 7.91823C56.2217 8.18156 55.9584 8.57656 55.695 8.97156C55.4317 9.36656 55.3 9.76156 55.1684 10.2882C55.0367 10.8149 55.0367 11.2099 55.0367 11.6049C55.0367 12.3949 55.0367 12.9216 55.3 13.3166C55.5634 13.7116 55.9584 13.8432 56.485 13.8432C57.0117 13.8432 57.4067 13.7116 57.8017 13.4482C58.065 13.1849 58.3284 12.9216 58.5917 12.5266C58.855 12.1316 58.9867 11.6049 59.1184 11.2099C59.25 10.6832 59.3817 10.1566 59.3817 9.76156C59.3817 9.10323 59.25 8.57656 58.9867 8.18156C58.7234 7.78656 58.3284 7.52323 57.8017 7.52323Z" fill="#C4C0C0"/>
<path d="M65.8333 16.2134H62.6733L65.3067 5.28507H68.4667L65.8333 16.2134ZM67.2817 3.9684C66.8867 3.9684 66.4917 3.83674 66.0967 3.5734C65.8333 3.31007 65.57 2.91507 65.57 2.3884C65.57 1.9934 65.7017 1.73007 65.8333 1.46674C65.8333 1.2034 66.0967 1.07174 66.2283 0.808405C66.4917 0.676738 66.6233 0.545072 66.8867 0.413405C67.15 0.281738 67.4133 0.281738 67.8083 0.281738C68.2033 0.281738 68.5983 0.413405 68.8617 0.676738C69.2567 0.940072 69.3883 1.2034 69.3883 1.86174C69.3883 2.12507 69.3883 2.3884 69.2567 2.65174C69.125 2.91507 68.9933 3.04674 68.73 3.31007C68.5983 3.44174 68.335 3.5734 68.0717 3.70507C67.8083 3.83674 67.545 3.9684 67.2817 3.9684Z" fill="#C4C0C0"/>
<path d="M70.7051 5.68006C70.8368 5.68006 71.1001 5.5484 71.3634 5.5484C71.7584 5.41673 72.0218 5.28506 72.4168 5.28506C72.6801 5.1534 73.0751 5.1534 73.6018 5.02173H75.0501C76.6301 5.02173 77.8151 5.41673 78.4734 6.47006C79.0001 7.39173 79.1318 8.7084 78.7368 10.2884L77.2884 16.2134H74.2601L75.5768 10.4201C75.7084 10.0251 75.7084 9.76173 75.8401 9.36673C75.8401 8.97173 75.8401 8.7084 75.8401 8.44506C75.7084 8.18173 75.5768 8.05006 75.4451 7.78673C75.1818 7.65506 74.9184 7.65506 74.5234 7.65506C74.1284 7.65506 73.7334 7.65506 73.2068 7.78673L71.2318 16.2134H68.0718L70.7051 5.68006Z" fill="#C4C0C0"/>
<path d="M33.1799 22.7967L32.5216 23.8501H31.8633C32.3899 23.0601 32.7849 22.2701 33.3116 21.6117C33.7066 20.8217 34.1016 20.1634 34.6283 19.6367H35.1549C35.2866 19.9001 35.2866 20.1634 35.2866 20.5584C35.4183 20.8217 35.4183 21.2167 35.4183 21.4801C35.5499 21.8751 35.5499 22.2701 35.6816 22.6651C35.6816 23.0601 35.6816 23.4551 35.8133 23.8501H35.1549C35.1549 23.7184 35.1549 23.4551 35.1549 23.3234C35.0233 23.0601 35.0233 22.9284 35.0233 22.7967H33.1799ZM35.0233 22.2701C35.0233 22.0067 34.8916 21.6117 34.8916 21.3484C34.8916 20.9534 34.7599 20.5584 34.7599 20.2951C34.6283 20.4267 34.3649 20.6901 34.2333 21.0851C33.9699 21.3484 33.7066 21.8751 33.4433 22.2701H35.0233Z" fill="#C4C0C0"/>
<path d="M37.9201 23.9815C37.6568 23.9815 37.5251 23.9815 37.2618 23.8499C36.9984 23.7182 36.8668 23.5865 36.7351 23.4549C36.6034 23.3232 36.4718 23.1915 36.4718 22.9282C36.3401 22.7965 36.3401 22.5332 36.3401 22.2699C36.3401 21.8749 36.3401 21.6115 36.4718 21.2165C36.6034 20.9532 36.8668 20.5582 36.9984 20.2949C37.2618 20.0315 37.5251 19.8999 37.7884 19.7682C38.0518 19.5049 38.4468 19.5049 38.8418 19.5049C39.1051 19.5049 39.3684 19.5049 39.6318 19.6365C39.7634 19.6365 39.8951 19.7682 40.0268 19.7682L39.7634 20.2949C39.6318 20.1632 39.5001 20.1632 39.3684 20.0315C39.2368 20.0315 38.9734 20.0315 38.8418 20.0315C38.4468 20.0315 38.3151 20.0315 38.0518 20.1632C37.7884 20.2949 37.6568 20.5582 37.3934 20.6899C37.2618 20.9532 37.1301 21.2165 37.1301 21.4799C36.9984 21.7432 36.9984 22.0065 36.9984 22.2699C36.9984 23.0599 37.2618 23.4549 38.0518 23.4549H38.4468C38.5784 23.3232 38.5784 23.3232 38.7101 23.3232C38.8418 23.3232 38.8418 23.3232 38.9734 23.1915H39.1051L39.2368 23.7182C39.2368 23.7182 39.1051 23.7182 38.9734 23.7182C38.9734 23.8499 38.8418 23.8499 38.7101 23.8499C38.5784 23.8499 38.5784 23.8499 38.4468 23.9815C38.3151 23.9815 38.1834 23.9815 37.9201 23.9815Z" fill="#C4C0C0"/>
<path d="M41.475 23.9815C41.2117 23.9815 40.9484 23.9815 40.685 23.8499C40.5534 23.7182 40.4217 23.5865 40.29 23.4549C40.1584 23.3232 40.0267 23.1915 39.895 22.9282C39.895 22.7965 39.895 22.5332 39.895 22.2699C39.895 21.8749 39.895 21.6115 40.0267 21.2165C40.1584 20.9532 40.29 20.5582 40.5534 20.2949C40.685 20.0315 40.9484 19.8999 41.3434 19.7682C41.6067 19.5049 42.0017 19.5049 42.265 19.5049C42.66 19.5049 42.9234 19.5049 43.055 19.6365C43.3184 19.6365 43.45 19.7682 43.45 19.7682L43.1867 20.2949C43.1867 20.1632 43.055 20.1632 42.9234 20.0315C42.66 20.0315 42.5284 20.0315 42.265 20.0315C42.0017 20.0315 41.7384 20.0315 41.475 20.1632C41.3434 20.2949 41.08 20.5582 40.9484 20.6899C40.8167 20.9532 40.685 21.2165 40.5534 21.4799C40.5534 21.7432 40.4217 22.0065 40.4217 22.2699C40.4217 23.0599 40.8167 23.4549 41.475 23.4549H41.87C42.0017 23.3232 42.1334 23.3232 42.265 23.3232C42.265 23.3232 42.3967 23.3232 42.3967 23.1915H42.66V23.7182C42.66 23.7182 42.66 23.7182 42.5284 23.7182C42.3967 23.8499 42.3967 23.8499 42.265 23.8499C42.1334 23.8499 42.0017 23.8499 41.87 23.9815C41.7384 23.9815 41.6067 23.9815 41.475 23.9815Z" fill="#C4C0C0"/>
<path d="M43.1868 23.8501L44.1084 19.6367H46.7418L46.6101 20.0317H44.6351L44.3718 21.3484H46.0834L45.9518 21.8751H44.2401L43.8451 23.3234H45.9518L45.8201 23.8501H43.1868Z" fill="#C4C0C0"/>
<path d="M48.4533 19.5049C48.98 19.5049 49.375 19.6365 49.6383 19.7682C49.9017 20.0315 50.0333 20.2949 50.0333 20.6899C50.0333 20.9532 49.9017 21.2165 49.9017 21.3482C49.77 21.6115 49.6383 21.7432 49.375 21.8749C49.2433 22.0065 48.98 22.1382 48.7167 22.1382C48.4533 22.2699 48.0583 22.2699 47.795 22.2699H47.4L47.005 23.8499H46.3467L47.4 19.6365C47.5317 19.6365 47.795 19.5049 47.9267 19.5049H48.4533ZM48.4533 20.0315C48.19 20.0315 47.9267 20.0315 47.9267 20.0315L47.5317 21.7432H47.9267H48.4533C48.585 21.7432 48.7167 21.6115 48.8483 21.6115L49.2433 21.2165C49.375 21.0849 49.375 20.9532 49.375 20.6899C49.375 20.4265 49.2433 20.2949 49.1117 20.1632C48.98 20.0315 48.7167 20.0315 48.4533 20.0315Z" fill="#C4C0C0"/>
<path d="M53.7199 19.6367L53.5882 20.0317H52.2716L51.3499 23.8501H50.6916L51.6132 20.0317H50.4282V19.6367H53.7199Z" fill="#C4C0C0"/>
<path d="M53.1934 23.8501L54.115 19.6367H56.7484L56.6167 20.0317H54.6417L54.3784 21.3484H56.09L55.9584 21.8751H54.2467L53.8517 23.3234H55.9584L55.8267 23.8501H53.1934Z" fill="#C4C0C0"/>
<path d="M58.4599 19.5049C59.1183 19.5049 59.6449 19.6365 59.9083 20.0315C60.1716 20.2949 60.4349 20.6899 60.4349 21.2165C60.4349 21.6115 60.3033 21.8749 60.1716 22.2699C60.0399 22.5332 59.9083 22.7965 59.6449 23.0599C59.5133 23.3232 59.1183 23.5865 58.8549 23.7182C58.4599 23.8499 57.9333 23.8499 57.5383 23.8499C57.2749 23.8499 57.1433 23.8499 56.8799 23.8499C56.7483 23.8499 56.4849 23.8499 56.3533 23.8499L57.4066 19.6365C57.5383 19.6365 57.8016 19.5049 57.9333 19.5049H58.4599ZM58.4599 20.0315C58.0649 20.0315 57.9333 20.0315 57.9333 20.0315L57.1433 23.3232C57.1433 23.3232 57.1433 23.3232 57.2749 23.4549H57.6699C57.9333 23.4549 58.1966 23.3232 58.4599 23.1915C58.7233 23.1915 58.9866 22.9282 59.1183 22.7965C59.3816 22.5332 59.5133 22.4015 59.6449 22.1382C59.6449 21.8749 59.7766 21.4799 59.7766 21.2165C59.7766 20.8215 59.6449 20.5582 59.3816 20.2949C59.2499 20.1632 58.8549 20.0315 58.4599 20.0315Z" fill="#C4C0C0"/>
<path d="M65.0434 23.8501H64.385L64.9117 21.8751H62.9367L62.41 23.8501H61.7517L62.805 19.6367H63.4634L63.0684 21.3484H65.0434L65.4384 19.6367H65.965L65.0434 23.8501Z" fill="#C4C0C0"/>
<path d="M65.9651 23.8501L67.0184 19.6367H69.5201L69.3884 20.0317H67.4134L67.1501 21.3484H68.8618L68.7301 21.8751H67.0184L66.6234 23.3234H68.7301L68.5984 23.8501H65.9651Z" fill="#C4C0C0"/>
<path d="M71.3633 19.5049C71.7583 19.5049 72.1533 19.6365 72.4166 19.7682C72.6799 20.0315 72.8116 20.2949 72.8116 20.6899C72.8116 20.9532 72.6799 21.3482 72.5483 21.4799C72.2849 21.7432 72.0216 22.0065 71.6266 22.0065C71.6266 22.1382 71.7583 22.2699 71.7583 22.4015C71.8899 22.5332 71.8899 22.6649 72.0216 22.7965C72.0216 23.0599 72.1533 23.1915 72.1533 23.3232C72.2849 23.5865 72.2849 23.7182 72.2849 23.8499H71.7583C71.6266 23.7182 71.6266 23.5865 71.4949 23.3232C71.4949 23.1915 71.4949 23.0599 71.3633 22.9282C71.3633 22.7965 71.2316 22.6649 71.2316 22.5332C71.0999 22.4015 71.0999 22.2699 70.9683 22.1382H70.8366H70.7049H70.1783L69.7833 23.8499H69.2566L70.1783 19.6365C70.4416 19.6365 70.5733 19.5049 70.7049 19.5049H71.3633ZM71.2316 20.0315C70.9683 20.0315 70.8366 20.0315 70.7049 20.0315L70.3099 21.7432H70.7049C70.8366 21.7432 70.9683 21.6115 71.2316 21.6115C71.3633 21.6115 71.4949 21.6115 71.6266 21.4799C71.8899 21.4799 72.0216 21.3482 72.0216 21.2165C72.1533 21.0849 72.1533 20.9532 72.1533 20.6899C72.1533 20.4265 72.1533 20.2949 71.8899 20.1632C71.7583 20.0315 71.4949 20.0315 71.2316 20.0315Z" fill="#C4C0C0"/>
<path d="M72.8118 23.8501L73.8651 19.6367H76.3668V20.0317H74.3918L73.9968 21.3484H75.8401L75.7084 21.8751H73.9968L73.6018 23.3234H75.7084L75.5768 23.8501H72.8118Z" fill="#C4C0C0"/>
</g>
</g>
</g>
<defs>
<clipPath id="clip0_47_347">
<rect width="79" height="24" fill="white"/>
</clipPath>
<clipPath id="clip1_47_347">
<rect width="79" height="24" fill="white"/>
</clipPath>
<clipPath id="clip2_47_347">
<rect width="79" height="23.9633" fill="white" transform="translate(0 0.0183105)"/>
</clipPath>
</defs>
</svg>
