<svg width="54" height="46" viewBox="0 0 54 46" fill="none" xmlns="http://www.w3.org/2000/svg">
<g clip-path="url(#clip0_47_338)">
<path d="M13.3712 40.2122V37.92C13.3712 37.0566 12.8415 36.476 11.9881 36.4683C11.5394 36.4607 11.0759 36.6058 10.7522 37.1178C10.5094 36.7128 10.1268 36.4683 9.58977 36.4683C9.21457 36.4683 8.84672 36.5829 8.5598 37.0108V36.56H7.79468V40.2122H8.56716V38.1874C8.56716 37.5533 8.90558 37.2171 9.42792 37.2171C9.95026 37.2171 10.193 37.5609 10.193 38.1798V40.2122H10.9655V38.1874C10.9655 37.5533 11.3187 37.2171 11.8263 37.2171C12.3339 37.2171 12.5988 37.5609 12.5988 38.1798V40.2122H13.3712ZM24.8039 36.56H23.5533V35.4521H22.7808V36.56H22.0672V37.2859H22.7808V38.9515C22.7808 39.7996 23.0971 40.3039 24.002 40.3039C24.3331 40.3039 24.7157 40.1969 24.9584 40.0212L24.7377 39.3412C24.5097 39.4787 24.2595 39.5475 24.0609 39.5475C23.6783 39.5475 23.5533 39.303 23.5533 38.9362V37.2859H24.8039V36.56ZM31.3296 36.4683C30.8881 36.4683 30.6012 36.6823 30.4026 37.0032V36.56H29.6448V40.2122H30.4099V38.1645C30.4099 37.5609 30.6601 37.2247 31.1603 37.2247C31.3148 37.2247 31.4767 37.2477 31.6385 37.3164L31.874 36.5676C31.7048 36.4989 31.484 36.4683 31.3296 36.4683ZM21.4639 36.8503C21.096 36.5982 20.5884 36.4683 20.0293 36.4683C19.1391 36.4683 18.5653 36.9115 18.5653 37.6373C18.5653 38.2333 18.992 38.6 19.7791 38.7146L20.1396 38.7681C20.559 38.8293 20.7576 38.9439 20.7576 39.1502C20.7576 39.4329 20.4781 39.5933 19.9557 39.5933C19.4334 39.5933 19.0435 39.4176 18.786 39.2113L18.4255 39.8302C18.8448 40.1511 19.3745 40.3039 19.9484 40.3039C20.9636 40.3039 21.5522 39.8072 21.5522 39.112C21.5522 38.4701 21.0887 38.134 20.3236 38.0194L19.9631 37.9659C19.632 37.92 19.3672 37.8513 19.3672 37.6068C19.3672 37.3393 19.6173 37.1789 20.0366 37.1789C20.4854 37.1789 20.9195 37.3546 21.1328 37.4922L21.4639 36.8503ZM41.9567 36.4683C41.5152 36.4683 41.2283 36.6823 41.0297 37.0032V36.56H40.2719V40.2122H41.037V38.1645C41.037 37.5609 41.2872 37.2247 41.7875 37.2247C41.942 37.2247 42.1038 37.2477 42.2657 37.3164L42.5011 36.5676C42.3319 36.4989 42.1112 36.4683 41.9567 36.4683ZM32.0984 38.3861C32.0984 39.494 32.8414 40.3039 33.9744 40.3039C34.5041 40.3039 34.8572 40.1816 35.2398 39.8684L34.8719 39.2266C34.585 39.4405 34.2834 39.5551 33.9523 39.5551C33.3417 39.5475 32.8929 39.089 32.8929 38.3861C32.8929 37.6832 33.3417 37.2247 33.9523 37.2171C34.2834 37.2171 34.585 37.3317 34.8719 37.5456L35.2398 36.9038C34.8572 36.5906 34.5041 36.4683 33.9744 36.4683C32.8414 36.4683 32.0984 37.2782 32.0984 38.3861ZM39.264 38.3861V36.56H38.4989V37.0032C38.2561 36.6746 37.8883 36.4683 37.388 36.4683C36.4022 36.4683 35.6297 37.2706 35.6297 38.3861C35.6297 39.5016 36.4022 40.3039 37.388 40.3039C37.8883 40.3039 38.2561 40.0976 38.4989 39.769V40.2122H39.264V38.3861ZM36.4169 38.3861C36.4169 37.7443 36.8215 37.2171 37.4836 37.2171C38.1458 37.2171 38.543 37.7214 38.543 38.3861C38.543 39.0508 38.1163 39.5551 37.4836 39.5551C36.8509 39.5551 36.4169 39.0279 36.4169 38.3861ZM27.1839 36.4683C26.1539 36.4683 25.433 37.2477 25.433 38.3861C25.433 39.5245 26.1834 40.3039 27.2354 40.3039C27.7651 40.3039 28.2507 40.1664 28.6774 39.792L28.3022 39.2036C28.0079 39.4481 27.6327 39.5857 27.2796 39.5857C26.7866 39.5857 26.3379 39.3488 26.2275 38.6917H28.8392C28.8466 38.5924 28.8539 38.4931 28.8539 38.3861C28.8466 37.2477 28.1697 36.4683 27.1839 36.4683ZM27.1692 37.1789C27.6621 37.1789 27.9785 37.4998 28.0594 38.0652H26.2349C26.3158 37.538 26.6248 37.1789 27.1692 37.1789ZM46.3598 38.3861V35.093H45.5947V37.0032C45.3519 36.6746 44.9841 36.4683 44.4838 36.4683C43.4979 36.4683 42.7255 37.2706 42.7255 38.3861C42.7255 39.5016 43.4979 40.3039 44.4838 40.3039C44.9841 40.3039 45.3519 40.0976 45.5947 39.769V40.2122H46.3598V38.3861ZM43.5127 38.3861C43.5127 37.7443 43.9173 37.2171 44.5794 37.2171C45.2415 37.2171 45.6388 37.7214 45.6388 38.3861C45.6388 39.0508 45.2121 39.5551 44.5794 39.5551C43.9467 39.5551 43.5127 39.0279 43.5127 38.3861ZM17.6787 38.3861V36.56H16.9136V37.0032C16.6708 36.6746 16.303 36.4683 15.8027 36.4683C14.8169 36.4683 14.0444 37.2706 14.0444 38.3861C14.0444 39.5016 14.8169 40.3039 15.8027 40.3039C16.303 40.3039 16.6708 40.0976 16.9136 39.769V40.2122H17.6787V38.3861ZM14.8316 38.3861C14.8316 37.7443 15.2362 37.2171 15.8984 37.2171C16.5605 37.2171 16.9578 37.7214 16.9578 38.3861C16.9578 39.0508 16.5311 39.5551 15.8984 39.5551C15.2657 39.5551 14.8316 39.0279 14.8316 38.3861ZM47.6326 39.6812C47.6804 39.6812 47.7282 39.6888 47.7723 39.7079C47.8165 39.727 47.8533 39.7538 47.8864 39.7843C47.9195 39.8187 47.9452 39.8569 47.9636 39.8989C47.982 39.941 47.993 39.9906 47.993 40.0403C47.993 40.0899 47.982 40.1358 47.9636 40.1816C47.9452 40.2237 47.9195 40.2657 47.8864 40.2962C47.8533 40.3306 47.8165 40.3535 47.7723 40.3726C47.7282 40.3917 47.6841 40.4032 47.6326 40.4032C47.5811 40.4032 47.5369 40.3917 47.4928 40.3726C47.4486 40.3535 47.4118 40.3268 47.3787 40.2962C47.3456 40.2619 47.3199 40.2237 47.3015 40.1816C47.2831 40.1396 47.2721 40.0899 47.2721 40.0403C47.2721 39.9906 47.2831 39.9448 47.3015 39.8989C47.3199 39.8531 47.3456 39.8149 47.3787 39.7843C47.4118 39.7499 47.4486 39.727 47.4928 39.7079C47.5369 39.6888 47.5847 39.6812 47.6326 39.6812ZM47.6326 40.3268C47.6693 40.3268 47.7061 40.3192 47.7392 40.3039C47.7723 40.2886 47.8018 40.2695 47.8238 40.2428C47.8496 40.216 47.868 40.1855 47.8827 40.1511C47.8974 40.1167 47.9048 40.0785 47.9048 40.0403C47.9048 40.0021 47.8974 39.9639 47.8827 39.9295C47.868 39.8951 47.8496 39.8645 47.8238 39.8378C47.7981 39.8111 47.7723 39.792 47.7392 39.7767C47.7061 39.7614 47.673 39.7538 47.6326 39.7538C47.5921 39.7538 47.559 39.7614 47.5259 39.7767C47.4928 39.792 47.4633 39.8111 47.4376 39.8378C47.4118 39.8645 47.3935 39.8951 47.3787 39.9295C47.364 39.9639 47.3567 40.0021 47.3567 40.0403C47.3567 40.0785 47.364 40.1167 47.3787 40.1511C47.3935 40.1855 47.4118 40.216 47.4376 40.2428C47.4633 40.2695 47.4928 40.2886 47.5259 40.3039C47.559 40.3192 47.5958 40.3268 47.6326 40.3268ZM47.6546 39.8722C47.6951 39.8722 47.7282 39.8836 47.7503 39.9027C47.7723 39.9219 47.7834 39.9486 47.7834 39.983C47.7834 40.0097 47.776 40.0326 47.7576 40.0517C47.7392 40.0708 47.7135 40.0823 47.6804 40.0861L47.787 40.2122H47.7024L47.6031 40.0861H47.57V40.2122H47.5001V39.876H47.6509L47.6546 39.8722ZM47.5737 39.9371V40.0288H47.6546C47.6546 40.0288 47.6877 40.0288 47.6988 40.0174C47.7098 40.0097 47.7135 39.9983 47.7135 39.983C47.7135 39.9677 47.7098 39.9562 47.6988 39.9486C47.6877 39.941 47.673 39.9371 47.6546 39.9371H47.5737Z" fill="#C4C0C0"/>
<path d="M32.7936 8.72925H21.2064V30.3559H32.7936V8.72925Z" fill="#7A7A7A"/>
<path d="M21.9421 19.5445C21.9421 15.1588 23.9211 11.2507 27 8.73312C24.7488 6.89174 21.9053 5.7915 18.8154 5.7915C11.5026 5.7915 5.57288 11.9498 5.57288 19.5445C5.57288 27.1392 11.5026 33.2975 18.8154 33.2975C21.9053 33.2975 24.7451 32.1973 27 30.3559C23.9211 27.8383 21.9421 23.9302 21.9421 19.5445Z" fill="#4E4B4B"/>
<path d="M47.1615 28.0636V27.6205H47.3343V27.5288H46.8966V27.6205H47.0695V28.0636H47.1651H47.1615ZM48.0112 28.0636V27.5288H47.8788L47.7243 27.8956L47.5698 27.5288H47.4373V28.0636H47.533V27.6625L47.6764 28.0102H47.7758L47.9192 27.6625V28.0675H48.0149L48.0112 28.0636Z" fill="#C4C0C0"/>
<path d="M48.4271 19.5445C48.4271 27.1392 42.4974 33.2975 35.1846 33.2975C32.0947 33.2975 29.2549 32.1973 27 30.3559C30.0789 27.8383 32.0579 23.9302 32.0579 19.5445C32.0579 15.1588 30.0789 11.2507 27 8.73312C29.2512 6.89174 32.0947 5.7915 35.1846 5.7915C42.4974 5.7915 48.4271 11.9498 48.4271 19.5445Z" fill="#C4C0C0"/>
</g>
<defs>
<clipPath id="clip0_47_338">
<rect width="54" height="46" fill="white"/>
</clipPath>
</defs>
</svg>
