<svg width="140" height="24" viewBox="0 0 140 24" fill="none" xmlns="http://www.w3.org/2000/svg">
<g clip-path="url(#clip0_47_425)">
<g clip-path="url(#clip1_47_425)">
<g clip-path="url(#clip2_47_425)">
<path d="M123.433 10.2499C122.733 10.7166 121.567 10.9499 120.167 10.9499H119.467H118.767L119.7 4.88322H120.4H120.867C122.033 4.88322 122.967 5.11655 123.667 5.34989C124.133 5.81655 124.6 6.28322 124.6 7.68322C124.6 9.08322 124.133 9.78322 123.433 10.2499ZM35.2333 17.9499H23.8L24.5 13.7499H31.7333L32.4333 9.31655H25.4333L26.1333 5.34989H37.5667L35.2333 17.9499ZM129.733 1.84989C127.867 0.683219 125.3 0.216553 122.033 0.216553H113.4L110.133 17.9499H98.7L99.4 13.7499H106.167L107.1 9.31655H100.1L101.033 5.34989H108.033L108.967 0.216553H94.5L91.4667 17.0166H86.1L89.3667 0.216553H81.6667L78.6333 17.0166H73.5L76.5333 0.216553H69.0667L65.8 17.9499H54.3667L55.0667 13.7499H61.8333L62.7667 9.31655H55.7667L56.4667 5.34989H63.7L64.6333 0.216553H19.6L17.0333 14.2166L12.1333 0.216553H4.2L0 23.0832H7.46667L10.0333 8.61655L14.9333 23.0832H41.7667L45.0333 5.34989H49.2333L45.9667 23.0832H116.433L118.533 11.8832L121.8 23.0832H129.267L125.767 13.9832L126.7 13.7499C128.333 13.2832 129.733 12.5832 130.667 11.4166C131.6 10.2499 132.067 8.61655 132.067 6.74989C132.067 4.64989 131.367 3.01655 129.733 1.84989Z" fill="#C4C0C0"/>
<path d="M135.8 20.2832H136.733H137.433C137.433 20.0499 137.433 20.0499 137.667 20.0499C137.667 19.8166 137.667 19.8166 137.667 19.5832C137.667 19.3499 137.667 19.3499 137.433 19.1166C137.433 19.1166 137.2 19.1166 136.967 19.1166H135.8V20.2832ZM135.333 22.3832V18.8832L136.733 18.6499H137.667C137.667 18.8832 137.9 18.8832 137.9 19.1166C138.133 19.1166 138.133 19.3499 138.133 19.5832C138.133 19.8166 138.133 20.0499 137.9 20.2832C137.9 20.5166 137.433 20.5166 137.2 20.7499H137.433L137.9 21.2166L138.6 22.1499H137.9L137.433 21.4499C137.433 21.2166 137.2 21.2166 137.2 20.9832C136.967 20.9832 136.967 20.7499 136.967 20.7499C136.733 20.7499 136.733 20.7499 136.733 20.7499C136.5 20.7499 136.5 20.7499 136.267 20.7499H135.8V22.3832H135.333Z" fill="#C4C0C0"/>
<path d="M133.933 20.5165C133.933 19.8165 134.167 19.1165 134.633 18.6498C135.1 18.1831 135.8 17.7165 136.5 17.7165C138.133 17.7165 139.3 18.8831 139.533 20.2831V20.5165C139.533 21.9165 138.367 23.0831 136.733 23.3165C135.333 23.3165 133.933 22.1498 133.933 20.5165ZM136.5 17.2498C135.567 17.2498 134.867 17.4831 134.167 18.1831C133.467 18.8831 133.233 19.8165 133.233 20.7498C133.467 22.6165 134.867 24.0165 136.733 23.7831C138.6 23.7831 140 22.1498 140 20.2831C140 18.4165 138.367 17.0165 136.5 17.2498Z" fill="#C4C0C0"/>
</g>
</g>
</g>
<defs>
<clipPath id="clip0_47_425">
<rect width="140" height="24" fill="white"/>
</clipPath>
<clipPath id="clip1_47_425">
<rect width="140" height="24" fill="white"/>
</clipPath>
<clipPath id="clip2_47_425">
<rect width="140" height="23.5667" fill="white" transform="translate(0 0.216553)"/>
</clipPath>
</defs>
</svg>
