<svg width="84" height="24" viewBox="0 0 84 24" fill="none" xmlns="http://www.w3.org/2000/svg">
<g clip-path="url(#clip0_47_394)">
<g clip-path="url(#clip1_47_394)">
<g clip-path="url(#clip2_47_394)">
<path d="M29.5953 4.84133C29.2964 4.84133 29.0261 4.7742 28.7845 4.63989C28.547 4.50151 28.3565 4.31632 28.2132 4.08433C28.074 3.84827 28.0044 3.58575 28.0044 3.29677C28.0044 3.0078 28.074 2.74936 28.2132 2.52143C28.3524 2.28944 28.5429 2.10629 28.7845 1.97198C29.0261 1.8336 29.2943 1.7644 29.5891 1.7644C29.8922 1.7644 30.1624 1.8336 30.3999 1.97198C30.6415 2.10629 30.8319 2.28944 30.9712 2.52143C31.1104 2.74936 31.18 3.0078 31.18 3.29677C31.18 3.58575 31.1104 3.84827 30.9712 4.08433C30.8319 4.31632 30.6415 4.50151 30.3999 4.63989C30.1624 4.7742 29.8942 4.84133 29.5953 4.84133ZM29.5891 4.09654C29.7406 4.09654 29.8737 4.06398 29.9884 3.99885C30.1071 3.92966 30.1973 3.83605 30.2586 3.71802C30.3242 3.59592 30.3569 3.45754 30.3569 3.30288C30.3569 3.14822 30.3242 3.01187 30.2586 2.89384C30.1931 2.77581 30.103 2.68423 29.9884 2.61911C29.8737 2.54992 29.7406 2.51533 29.5891 2.51533C29.4417 2.51533 29.3107 2.54992 29.196 2.61911C29.0813 2.68423 28.9913 2.77581 28.9257 2.89384C28.8602 3.01187 28.8274 3.14822 28.8274 3.30288C28.8274 3.45754 28.8602 3.59592 28.9257 3.71802C28.9913 3.83605 29.0813 3.92966 29.196 3.99885C29.3107 4.06398 29.4417 4.09654 29.5891 4.09654Z" fill="#C4C0C0"/>
<path fill-rule="evenodd" clip-rule="evenodd" d="M34.5971 4.78023H33.7986V4.51234C33.7209 4.58876 33.6308 4.65364 33.5284 4.70696C33.3564 4.7965 33.1639 4.84125 32.951 4.84125C32.6766 4.84125 32.4309 4.77412 32.2139 4.63981C31.9969 4.50549 31.8249 4.32234 31.6979 4.09035C31.5751 3.85836 31.5137 3.59788 31.5137 3.3089C31.5137 3.01586 31.5751 2.75334 31.6979 2.52135C31.8249 2.28936 31.9948 2.10621 32.2078 1.9719C32.4248 1.83758 32.6725 1.77043 32.951 1.77043C33.1639 1.77043 33.3543 1.81317 33.5222 1.89864C33.6247 1.94954 33.7147 2.01271 33.7925 2.08815V1.46724C33.7925 1.02555 34.1527 0.66748 34.5971 0.66748C34.5971 2.1388 34.5971 3.30891 34.5971 4.78023ZM33.4792 4.00488C33.3686 4.07 33.2376 4.10256 33.0861 4.10256C32.9428 4.10256 32.8138 4.07 32.6991 4.00488C32.5845 3.93569 32.4944 3.84208 32.4289 3.72405C32.3674 3.60194 32.3367 3.46153 32.3367 3.3028C32.3367 3.14814 32.3674 3.01179 32.4289 2.89376C32.4944 2.77573 32.5825 2.68212 32.693 2.61293C32.8076 2.54374 32.9407 2.50914 33.0923 2.50914C33.2397 2.50914 33.3686 2.54374 33.4792 2.61293C33.5939 2.67805 33.682 2.77166 33.7433 2.89376C33.8089 3.01179 33.8416 3.14814 33.8416 3.3028C33.8416 3.46153 33.8089 3.60194 33.7433 3.72405C33.682 3.84208 33.5939 3.93569 33.4792 4.00488Z" fill="#C4C0C0"/>
<path fill-rule="evenodd" clip-rule="evenodd" d="M35.8188 4.63988C36.0359 4.77419 36.2795 4.84137 36.5498 4.84137C36.7628 4.84137 36.9531 4.79861 37.121 4.71315C37.2327 4.65362 37.3289 4.58061 37.4097 4.49411V4.78029H38.2082V1.83155H37.4097V2.11502C37.3289 2.02764 37.2327 1.95553 37.121 1.89871C36.9531 1.81325 36.7628 1.77051 36.5498 1.77051C36.2795 1.77051 36.0359 1.83767 35.8188 1.97198C35.6018 2.10629 35.4319 2.28944 35.3091 2.52143C35.1862 2.75342 35.1248 3.01594 35.1248 3.30898C35.1248 3.59796 35.1862 3.85844 35.3091 4.09043C35.4319 4.32242 35.6018 4.50557 35.8188 4.63988ZM37.2439 3.88286C37.1047 4.02938 36.9224 4.10264 36.6972 4.10264C36.5498 4.10264 36.4188 4.07008 36.3041 4.00496C36.1935 3.93577 36.1055 3.84216 36.04 3.72413C35.9786 3.60203 35.9479 3.46161 35.9479 3.30288C35.9479 3.14822 35.9786 3.01187 36.04 2.89384C36.1055 2.77174 36.1935 2.67813 36.3041 2.61301C36.4188 2.54382 36.5498 2.50922 36.6972 2.50922C36.8488 2.50922 36.9798 2.54382 37.0903 2.61301C37.205 2.67813 37.293 2.77174 37.3545 2.89384C37.42 3.01187 37.4527 3.14822 37.4527 3.30288C37.4527 3.53894 37.3831 3.73227 37.2439 3.88286Z" fill="#C4C0C0"/>
<path d="M26.748 3.98054C26.748 4.42223 27.1083 4.7803 27.5527 4.7803V2.91215C27.5527 2.71272 27.5036 2.52754 27.4053 2.35659C27.307 2.18158 27.1719 2.04117 26.9999 1.93534C26.8279 1.82546 26.6334 1.77051 26.4163 1.77051C26.1911 1.77051 25.9884 1.81935 25.8083 1.91703C25.7137 1.96951 25.6297 2.03315 25.5563 2.10794V1.83157H24.7517V3.98054C24.7517 4.42224 25.112 4.7803 25.5563 4.7803V3.08918C25.5563 2.97115 25.581 2.86738 25.6301 2.77784C25.6833 2.6883 25.755 2.61911 25.8451 2.57027C25.9352 2.52143 26.0376 2.49701 26.1522 2.49701C26.3283 2.49701 26.4716 2.55196 26.5822 2.66185C26.6927 2.77174 26.748 2.91419 26.748 3.0892V3.98054Z" fill="#C4C0C0"/>
<path fill-rule="evenodd" clip-rule="evenodd" d="M7.5128 1.75865H5.81688C5.79254 1.75865 5.76749 1.75862 5.74186 1.7586H5.74138C5.39923 1.75827 4.94909 1.75784 4.55524 1.81234C4.06687 1.87993 3.34495 2.06721 2.72841 2.7018C2.11189 3.3364 1.92994 4.07948 1.86428 4.58216C1.81132 4.98758 1.81175 5.45087 1.81206 5.80305V5.80358C1.81209 5.82998 1.81211 5.8557 1.81211 5.8808V7.64762H4.06425V5.8808C4.06425 5.03039 4.06425 4.60516 4.32092 4.34098C4.57759 4.07679 4.9907 4.07679 5.81688 4.07679H7.5128V1.75865ZM19.619 7.64762V5.8808C19.619 5.03039 19.619 4.60516 19.3622 4.34098C19.1056 4.07679 18.6925 4.07679 17.8663 4.07679H16.147V1.75865H17.8663C17.8906 1.75865 17.9157 1.75862 17.9413 1.7586H17.9418C18.284 1.75827 18.7341 1.75784 19.1279 1.81234C19.6163 1.87993 20.3382 2.06721 20.9547 2.7018C21.5713 3.3364 21.7532 4.07948 21.8189 4.58216C21.8719 4.98758 21.8714 5.45087 21.8711 5.80305L21.8711 5.84409V5.85023V5.8808V7.64762H19.619ZM16.147 19.8618H17.8663C18.6925 19.8618 19.1056 19.8618 19.3622 19.5976C19.619 19.3334 19.619 18.9082 19.619 18.0578V16.2818H21.8711V18.0578V18.0957L21.8711 18.1355C21.8714 18.4877 21.8719 18.951 21.8189 19.3564C21.7532 19.8591 21.5713 20.6022 20.9547 21.2368C20.3382 21.8713 19.6163 22.0587 19.1279 22.1262C18.735 22.1806 18.2859 22.1803 17.944 22.18H17.9418C17.916 22.1799 17.8908 22.1799 17.8663 22.1799H16.147V19.8618ZM4.06425 16.2818V18.0578C4.06425 18.9082 4.06425 19.3334 4.32092 19.5976C4.57759 19.8618 4.9907 19.8618 5.81688 19.8618H7.5128V22.1799H5.81688H5.78597C5.77133 22.1799 5.75645 22.1799 5.74133 22.18H5.73917C5.39731 22.1803 4.94828 22.1806 4.55524 22.1262C4.06687 22.0587 3.34495 21.8713 2.72841 21.2368C2.11189 20.6022 1.92994 19.8591 1.86428 19.3564C1.81132 18.951 1.81175 18.4877 1.81206 18.1355C1.81209 18.1091 1.81211 18.0829 1.81211 18.0578V16.2818H4.06425Z" fill="#C4C0C0"/>
<path d="M17.5482 8.64493C17.5482 10.0416 16.436 11.1738 15.0641 11.1738C13.6922 11.1738 12.5801 10.0416 12.5801 8.64493C12.5801 7.2482 13.6922 6.11597 15.0641 6.11597C16.436 6.11597 17.5482 7.2482 17.5482 8.64493Z" fill="#C4C0C0"/>
<path d="M15.0641 12.9441C13.6922 12.9441 12.5801 14.0764 12.5801 15.473V17.749H17.5482V15.473C17.5482 14.0764 16.436 12.9441 15.0641 12.9441Z" fill="#C4C0C0"/>
<path opacity="0.4" d="M6.13501 15.4206C6.13501 14.0937 7.19156 13.0181 8.49489 13.0181H10.8547V17.823H8.49489C7.19156 17.823 6.13501 16.7474 6.13501 15.4206Z" fill="#C4C0C0"/>
<path opacity="0.4" d="M6.13501 6.1897H8.86752C9.965 6.1897 10.8547 7.09544 10.8547 8.2128V10.9946H6.13501V6.1897Z" fill="#C4C0C0"/>
<path d="M79.3003 17.0994C79.882 17.0994 80.3183 17.2606 80.6091 17.5832C80.9005 17.9058 81.0459 18.3706 81.0459 18.9778V22.2224H79.1578V19.2055C79.1578 18.9904 79.1007 18.8197 78.9869 18.6932C78.8794 18.5604 78.7244 18.4939 78.5224 18.4939C78.2881 18.4939 78.0986 18.5699 77.9531 18.7217C77.8072 18.8734 77.7348 19.06 77.7348 19.2814V22.2224H75.8467V17.2132H77.3931L77.5164 17.9722C77.7127 17.7065 77.969 17.4946 78.2848 17.3366C78.6078 17.1784 78.9461 17.0994 79.3003 17.0994Z" fill="#C4C0C0"/>
<path d="M72.2985 17.0994C73.1777 17.0994 73.8674 17.3239 74.367 17.7729C74.8729 18.2157 75.1258 18.864 75.1258 19.7178C75.1258 20.5717 74.8729 21.2231 74.367 21.6722C73.8674 22.1149 73.1777 22.3363 72.2985 22.3363C71.4197 22.3363 70.73 22.1149 70.2304 21.6722C69.7308 21.2294 69.4812 20.5779 69.4812 19.7178C69.4812 18.8576 69.7308 18.2062 70.2304 17.7635C70.73 17.3207 71.4197 17.0994 72.2985 17.0994ZM72.2985 18.3801C71.6789 18.3801 71.3688 18.7375 71.3688 19.4521V19.9929C71.3688 20.7013 71.6789 21.0555 72.2985 21.0555C72.9248 21.0555 73.2377 20.7013 73.2377 19.9929V19.4521C73.2377 18.7375 72.9248 18.3801 72.2985 18.3801Z" fill="#C4C0C0"/>
<path d="M66.8057 16.625V15.3442H68.6938V16.625H66.8057ZM66.8057 22.2224V17.2132H68.6938V22.2224H66.8057Z" fill="#C4C0C0"/>
<path d="M66.053 17.2133V18.494H64.9904V20.401C64.9904 20.6286 65.0283 20.7962 65.1041 20.9037C65.18 21.005 65.3192 21.0556 65.5217 21.0556H66.053V22.1655C65.9013 22.2161 65.705 22.2572 65.4646 22.2889C65.2246 22.3205 65.0158 22.3363 64.8387 22.3363C64.282 22.3363 63.852 22.2351 63.5482 22.0327C63.2511 21.8303 63.1023 21.4856 63.1023 20.9986V18.494H62.4006V17.2133H63.1781L63.5861 15.6953H64.9904V17.2133H66.053Z" fill="#C4C0C0"/>
<path d="M59.2091 17.0994C59.9746 17.0994 60.5976 17.229 61.078 17.4883C61.5589 17.7413 61.7989 18.1556 61.7989 18.7311V20.6855C61.7989 20.793 61.8243 20.8816 61.8752 20.9511C61.9256 21.0207 62.0014 21.0555 62.1027 21.0555H62.4444V22.1465C62.4252 22.1592 62.3748 22.1813 62.2923 22.2129C62.2164 22.2382 62.1061 22.2635 61.9606 22.2888C61.8147 22.3204 61.6472 22.3363 61.4576 22.3363C61.091 22.3363 60.7872 22.2825 60.5467 22.1749C60.313 22.0611 60.1517 21.9061 60.0629 21.7101C59.8225 21.8998 59.5537 22.0516 59.2566 22.1654C58.9595 22.2793 58.6116 22.3363 58.2128 22.3363C57.0364 22.3363 56.4485 21.8682 56.4485 20.9321C56.4485 20.4451 56.5781 20.0752 56.8372 19.8222C57.1031 19.5629 57.4823 19.3858 57.9757 19.2909C58.469 19.196 59.1141 19.1486 59.9113 19.1486V18.9019C59.9113 18.7058 59.8417 18.5572 59.7025 18.456C59.5696 18.3548 59.3958 18.3042 59.1808 18.3042C58.9845 18.3042 58.8136 18.339 58.6682 18.4086C58.529 18.4781 58.4594 18.5888 58.4594 18.7406V18.7786H56.6001C56.5939 18.747 56.5906 18.7027 56.5906 18.6457C56.5906 18.1714 56.8152 17.7951 57.2644 17.5168C57.7199 17.2385 58.3678 17.0994 59.2091 17.0994ZM59.9113 20.0404C59.3737 20.0404 58.9749 20.1004 58.7157 20.2206C58.4628 20.3345 58.3361 20.4894 58.3361 20.6855C58.3361 21.0017 58.5516 21.1598 58.9816 21.1598C59.2283 21.1598 59.4433 21.0934 59.6267 20.9606C59.8162 20.8278 59.9113 20.6633 59.9113 20.4673V20.0404Z" fill="#C4C0C0"/>
<path d="M53.1849 17.0994C54.0071 17.0994 54.6713 17.2765 55.1772 17.6306C55.6898 17.9785 55.9456 18.5129 55.9456 19.234H54.1146C54.1146 18.6647 53.805 18.3801 53.1849 18.3801C52.5653 18.3801 52.2553 18.7375 52.2553 19.4521V19.9929C52.2553 20.7013 52.5778 21.0555 53.2228 21.0555C53.8679 21.0555 54.1904 20.7645 54.1904 20.1827H55.9456C55.9456 20.91 55.6898 21.4508 55.1772 21.805C54.6713 22.1592 54.0071 22.3363 53.1849 22.3363C52.3057 22.3363 51.6165 22.1149 51.1169 21.6722C50.6172 21.2294 50.3672 20.5779 50.3672 19.7178C50.3672 18.8576 50.6172 18.2062 51.1169 17.7635C51.6165 17.3207 52.3057 17.0994 53.1849 17.0994Z" fill="#C4C0C0"/>
<path d="M46.4395 15.2305C46.566 15.2305 46.721 15.2495 46.9044 15.2874C47.0878 15.319 47.2364 15.357 47.3503 15.4012V16.5112H47.0088C46.8064 16.5112 46.6704 16.5492 46.6008 16.6251C46.5312 16.701 46.4964 16.8306 46.4964 17.0141V17.2133H47.3503V18.494H46.4964V22.2225H44.6085V18.494H43.9634V17.2133H44.6085V17.0046C44.6085 16.3594 44.7666 15.9041 45.0828 15.6384C45.3991 15.3665 45.8513 15.2305 46.4395 15.2305ZM47.7487 16.6251V15.3443H49.6365V16.6251H47.7487ZM47.7487 22.2225V17.2133H49.6365V22.2225H47.7487Z" fill="#C4C0C0"/>
<path d="M41.5537 16.625V15.3442H43.4417V16.625H41.5537ZM41.5537 22.2224V17.2132H43.4417V22.2224H41.5537Z" fill="#C4C0C0"/>
<path d="M40.5068 17.0898C40.6523 17.0898 40.7819 17.1088 40.8958 17.1468C41.0096 17.1784 41.0665 17.1973 41.0665 17.2037V18.788H40.4593C40.0672 18.788 39.7826 18.8892 39.6055 19.0916C39.4348 19.294 39.3494 19.5944 39.3494 19.9929V22.2223H37.4614V17.2132H39.0078L39.1311 17.9722C39.245 17.6812 39.4253 17.463 39.6719 17.3175C39.9186 17.1657 40.1969 17.0898 40.5068 17.0898Z" fill="#C4C0C0"/>
<path d="M33.9133 17.0994C34.8305 17.0994 35.5293 17.3144 36.01 17.7445C36.497 18.1746 36.7405 18.8323 36.7405 19.7178V20.0404H32.9836C32.9836 20.4009 33.0627 20.6728 33.2208 20.8563C33.3853 21.0396 33.6414 21.1314 33.9893 21.1314C34.3055 21.1314 34.5364 21.065 34.6818 20.9321C34.8336 20.7993 34.9095 20.6222 34.9095 20.4009H36.7405C36.7405 21.008 36.5096 21.4824 36.0479 21.8239C35.5862 22.1654 34.9127 22.3363 34.0272 22.3363C33.0975 22.3363 32.3765 22.1212 31.8641 21.6911C31.3518 21.2547 31.0957 20.5969 31.0957 19.7178C31.0957 18.8576 31.3455 18.2062 31.8452 17.7635C32.3448 17.3207 33.0342 17.0994 33.9133 17.0994ZM33.9893 18.3042C33.3947 18.3042 33.0627 18.5857 32.9931 19.1486H34.8336C34.8336 18.8893 34.7577 18.6837 34.6059 18.5319C34.4604 18.3801 34.2549 18.3042 33.9893 18.3042Z" fill="#C4C0C0"/>
<path d="M26.5179 22.2224L24.2031 15.6953H26.4421L27.7513 20.0594H27.7892L29.1079 15.6953H31.252L28.9466 22.2224H26.5179Z" fill="#C4C0C0"/>
<path d="M60.9876 13.2976C60.728 13.9996 60.4088 14.5309 60.0292 14.8914C59.6563 15.2582 59.1312 15.4417 58.4545 15.4417C58.0432 15.4417 57.6799 15.3848 57.3636 15.2709V14.142H58.1224C58.5966 14.142 58.8783 13.9111 58.9666 13.4494L56.9744 8.44019H59.0045L59.963 11.7702H60.0292L60.9118 8.44019H62.7711L60.9876 13.2976Z" fill="#C4C0C0"/>
<path d="M56.8574 8.44003V9.72081H55.7948V11.6277C55.7948 11.8554 55.8332 12.023 55.9091 12.1305C55.9849 12.2317 56.1241 12.2823 56.3261 12.2823H56.8574V13.3923C56.7058 13.4429 56.51 13.484 56.2695 13.5156C56.0291 13.5472 55.8203 13.5631 55.6432 13.5631C55.0869 13.5631 54.6564 13.4619 54.3531 13.2595C54.056 13.0571 53.9072 12.7124 53.9072 12.2254V9.72081H53.2051V8.44003H53.9831L54.391 6.92212H55.7948V8.44003H56.8574Z" fill="#C4C0C0"/>
<path d="M50.6147 7.85177V6.57104H52.5028V7.85177H50.6147ZM50.6147 13.4492V8.43999H52.5028V13.4492H50.6147Z" fill="#C4C0C0"/>
<path d="M49.8622 8.44003V9.72081H48.7996V11.6277C48.7996 11.8554 48.8375 12.023 48.9133 12.1305C48.9896 12.2317 49.1288 12.2823 49.3309 12.2823H49.8622V13.3923C49.7105 13.4429 49.5142 13.484 49.2742 13.5156C49.0338 13.5472 48.825 13.5631 48.6479 13.5631C48.0912 13.5631 47.6613 13.4619 47.3577 13.2595C47.0604 13.0571 46.9118 12.7124 46.9118 12.2254V9.72081H46.2097V8.44003H46.9877L47.3956 6.92212H48.7996V8.44003H49.8622Z" fill="#C4C0C0"/>
<path d="M43.8381 8.32617C44.4199 8.32617 44.8563 8.48743 45.1473 8.81C45.4382 9.13257 45.5837 9.59744 45.5837 10.2046V13.4492H43.6957V10.4323C43.6957 10.2173 43.6388 10.0465 43.525 9.92001C43.4175 9.78716 43.2625 9.72079 43.0601 9.72079C42.8261 9.72079 42.6364 9.79667 42.4909 9.94847C42.3454 10.1003 42.2727 10.2868 42.2727 10.5082V13.4492H40.3848V8.44001H41.9311L42.0545 9.199C42.2505 8.93335 42.5067 8.72145 42.8229 8.56336C43.1455 8.40522 43.4839 8.32617 43.8381 8.32617Z" fill="#C4C0C0"/>
<path d="M36.8367 8.32617C37.7538 8.32617 38.4527 8.54123 38.9334 8.97131C39.4204 9.40139 39.6639 10.0591 39.6639 10.9446V11.2672H35.907C35.907 11.6277 35.986 11.8996 36.1442 12.0831C36.3086 12.2665 36.5648 12.3582 36.9126 12.3582C37.2289 12.3582 37.4597 12.2918 37.6052 12.1589C37.757 12.0261 37.8329 11.849 37.8329 11.6277H39.6639C39.6639 12.2349 39.433 12.7092 38.9713 13.0508C38.5096 13.3923 37.836 13.5631 36.9506 13.5631C36.0208 13.5631 35.2998 13.348 34.7875 12.9179C34.2752 12.4815 34.019 11.8238 34.019 10.9446C34.019 10.0844 34.2689 9.43301 34.7685 8.99027C35.2682 8.54752 35.9576 8.32617 36.8367 8.32617ZM36.9126 9.53102C36.3181 9.53102 35.986 9.81251 35.9165 10.3754H37.757C37.757 10.1161 37.6811 9.91051 37.5293 9.7587C37.3838 9.60695 37.1783 9.53102 36.9126 9.53102Z" fill="#C4C0C0"/>
<path d="M31.7516 13.4492L31.5903 12.7376C31.2235 13.2879 30.6922 13.563 29.9965 13.563C29.3198 13.563 28.798 13.3416 28.4311 12.8989C28.0643 12.4562 27.8809 11.8016 27.8809 10.9351C27.8809 10.075 28.0643 9.42665 28.4311 8.99024C28.798 8.5475 29.3198 8.32615 29.9965 8.32615C30.572 8.32615 31.0401 8.51904 31.4006 8.90486V6.57104H33.2885V13.4492H31.7516ZM30.5847 9.72076C30.0408 9.72076 29.7688 10.0465 29.7688 10.6979V11.2008C29.7688 11.8459 30.0408 12.1684 30.5847 12.1684C30.863 12.1684 31.0717 12.0704 31.2108 11.8743C31.35 11.6783 31.4196 11.4221 31.4196 11.1059V10.7928C31.4196 10.4766 31.35 10.2204 31.2108 10.0243C31.0717 9.82194 30.863 9.72076 30.5847 9.72076Z" fill="#C4C0C0"/>
<path d="M24.8386 13.4492V6.92212H26.9353V13.4492H24.8386Z" fill="#C4C0C0"/>
</g>
</g>
</g>
<defs>
<clipPath id="clip0_47_394">
<rect width="83.51" height="24" fill="white"/>
</clipPath>
<clipPath id="clip1_47_394">
<rect width="83.51" height="24" fill="white"/>
</clipPath>
<clipPath id="clip2_47_394">
<rect width="83.51" height="23.9971" fill="white" transform="translate(0 0.00146484)"/>
</clipPath>
</defs>
</svg>
