<svg width="109" height="35" viewBox="0 0 109 35" fill="none" xmlns="http://www.w3.org/2000/svg">
<g clip-path="url(#clip0_47_432)">
<path d="M19.5159 10.0713C19.1595 9.34723 18.5958 8.75004 17.8959 8.3016C17.1658 7.84879 16.304 7.5316 15.319 7.34348C14.3168 7.15973 13.159 7.0766 11.8177 7.06348L5.62495 7.06785C4.98127 7.0766 4.35055 7.5841 4.19935 8.2141L0.0327104 26.5935C-0.11849 27.2147 0.28543 27.7354 0.92911 27.7354H3.89479C4.53847 27.7354 5.17567 27.23 5.31823 26.5935L6.33559 22.131C6.47167 21.5097 7.10671 20.9913 7.75687 20.9913H8.60575C12.2324 20.9869 15.0404 20.2366 17.0578 18.7338C19.0861 17.2288 20.0862 15.2404 20.0862 12.7772C20.084 11.6988 19.909 10.7932 19.5159 10.0713ZM13.1202 16.076C12.2238 16.741 10.9774 17.0735 9.37039 17.0735H8.64463C7.99879 17.0735 7.60351 16.5572 7.74391 15.9272L8.63599 12.0247C8.76127 11.3991 9.41143 10.8807 10.0486 10.885L11.0206 10.8785C12.1546 10.8785 13.0208 11.0775 13.5997 11.4625C14.1721 11.8432 14.4594 12.4491 14.455 13.2519C14.4723 14.4725 14.0122 15.411 13.1202 16.076Z" fill="#C4C0C0"/>
<path d="M104.058 8.50287L103.873 8.55975L103.624 8.59475L103.32 8.54662L103.164 8.39349L103.093 8.15287L103.089 7.79193V6.45537H104.08V6.04193H103.089V5.2085H102.598V6.04193H102.266V6.45537H102.598V8.01068L102.827 8.78068L103.501 9.02568L103.784 9.00162L104.084 8.94256V8.50287H104.058Z" fill="#C4C0C0"/>
<path d="M108.657 6.25405L107.948 5.95874L107.426 6.06593L106.894 6.42905L106.585 6.08124L106.084 5.96093L105.602 6.06811L105.147 6.36561V6.04186H104.665V8.96218H105.145V6.78124L105.548 6.52749L105.95 6.42686L106.279 6.48593L106.441 6.65436L106.512 6.93436L106.536 7.2953V8.96436H107.017V7.09624L107.009 6.94093L107 6.79874L107.41 6.53405L107.816 6.43124L108.134 6.4903L108.307 6.65874L108.367 6.94093L108.4 7.29749V8.96655H108.884V7.06999L108.657 6.25405Z" fill="#C4C0C0"/>
<path d="M33.8172 12.6984C32.6983 12.0596 30.9315 11.7402 28.5166 11.7402C27.3221 11.7402 26.1319 11.8343 24.9288 12.0224C24.0411 12.1602 23.9547 12.1865 23.4082 12.3068C22.2807 12.5562 22.1035 13.6959 22.1035 13.6959L21.7407 15.2074C21.5355 16.1721 22.0841 16.1349 22.3131 16.054C22.8055 15.9052 23.0799 15.7521 24.0864 15.5246C25.0476 15.3037 26.0607 15.1374 26.8642 15.1484C28.05 15.1484 28.9572 15.2752 29.562 15.5334C30.1582 15.7959 30.4563 16.2465 30.4563 16.8984L30.4044 17.3227L29.9767 17.5896C28.2941 17.6968 27.078 17.8543 25.6027 18.0709C24.1599 18.2743 22.8941 18.6309 21.8422 19.1187C20.7125 19.6218 19.8744 20.2977 19.2891 21.1574C18.7231 22.0215 18.4402 23.0693 18.4402 24.2987C18.4402 25.4559 18.8506 26.4118 19.6476 27.1512C20.449 27.8774 21.5074 28.2318 22.7731 28.2318C23.5745 28.2274 24.1944 28.164 24.6351 28.0568L26.0715 27.5559L27.2875 26.8734L28.4064 26.1252L28.4215 26.1471L28.3092 26.6284L28.3027 26.648V26.6524C28.1818 27.2387 28.5317 27.7199 29.0955 27.7768L29.1063 27.7899H29.1581H31.4326H31.8603L31.8991 27.7724C32.491 27.7024 33.0461 27.2212 33.1757 26.648L35.3379 17.1696L35.4502 16.3974L35.502 15.6734C35.5107 14.3302 34.9383 13.3349 33.8172 12.6984ZM29.035 23.3559L28.5727 23.9727L27.4063 24.583C26.8577 24.8084 26.3371 24.9221 25.8555 24.9221C25.1254 24.9221 24.553 24.8149 24.1663 24.5962L23.5939 23.4696C23.5939 22.8593 23.7322 22.3759 24.0281 22.004L25.2852 21.1377C25.8231 20.954 26.4797 20.7987 27.24 20.6915C27.9183 20.6062 29.2575 20.4509 29.4324 20.4465L29.6376 20.8118C29.5966 21.0196 29.2164 22.6296 29.035 23.3559Z" fill="#C4C0C0"/>
<path d="M87.6832 12.7115C86.5578 12.0728 84.7931 11.7512 82.3847 11.7512C81.1902 11.7512 79.9979 11.8453 78.7991 12.04C77.9092 12.1712 77.8206 12.1997 77.272 12.3178C76.1466 12.565 75.9717 13.709 75.9717 13.709L75.6088 15.2184C75.4058 16.1831 75.9414 16.1393 76.192 16.065C76.6866 15.9162 76.9523 15.7697 77.9502 15.5334C78.9071 15.3147 79.9288 15.1528 80.7345 15.1572C81.916 15.1572 82.8232 15.2862 83.4258 15.5443C84.0263 15.8068 84.3201 16.2618 84.3201 16.9072L84.2747 17.3293L83.8514 17.6028C82.1514 17.7056 80.9332 17.8631 79.473 18.0797C78.0345 18.2831 76.7644 18.6375 75.7103 19.1275C74.585 19.6328 73.7361 20.3087 73.1572 21.1706C72.5848 22.0347 72.3062 23.0803 72.3062 24.2987C72.3062 25.4647 72.7122 26.4206 73.5201 27.1556C74.3258 27.8797 75.3734 28.2428 76.6391 28.2428C77.4362 28.234 78.0561 28.1815 78.4989 28.0656L79.931 27.5712L81.1578 26.8887L82.2681 26.1318L82.2875 26.1559L82.186 26.6415L82.1752 26.6503L82.1795 26.659C82.0456 27.2453 82.3977 27.7309 82.9679 27.7834L82.9722 27.7943H83.0241C83.3978 27.7943 84.6894 27.7943 85.305 27.7943H85.7241L85.7694 27.779C86.3548 27.7068 86.9078 27.2256 87.0309 26.6459L89.1995 17.1806L89.314 16.404L89.3766 15.6778C89.3788 14.339 88.8129 13.3481 87.6832 12.7115ZM82.9118 23.369L82.4301 23.9925L81.2745 24.5984C80.7258 24.8215 80.2031 24.9375 79.7301 24.9375C78.9762 24.9375 78.419 24.8281 78.0431 24.6093L77.4642 23.4872C77.4642 22.8747 77.6046 22.3956 77.8876 22.0172C78.1749 21.6606 78.6134 21.3675 79.1577 21.1531C79.689 20.9693 80.3457 20.8206 81.1103 20.709C81.7842 20.6237 83.1191 20.464 83.2919 20.4618L83.5014 20.8272C83.4712 21.035 83.0889 22.6384 82.9118 23.369Z" fill="#C4C0C0"/>
<path d="M73.373 10.1389C73.0015 9.41047 72.4442 8.82203 71.74 8.36265C71.0186 7.90765 70.1632 7.58828 69.1632 7.40453C68.1804 7.22734 67.0075 7.13109 65.6748 7.12891L59.4734 7.13328C58.8276 7.14422 58.2076 7.65172 58.0586 8.27516L53.8876 26.6633C53.7364 27.2867 54.1512 27.803 54.7819 27.803L57.7519 27.7986C58.3826 27.803 59.0284 27.2911 59.1775 26.6611L60.1819 22.1964C60.3288 21.5752 60.966 21.0523 61.6075 21.0567H62.4564C66.0873 21.0567 68.9018 20.2998 70.9279 18.8014C72.9302 17.2855 73.9432 15.3014 73.9432 12.8361C73.9324 11.762 73.7488 10.8542 73.373 10.1389ZM66.9772 16.1523C66.083 16.8042 64.8345 17.1367 63.2361 17.1367H62.4974C61.8602 17.1433 61.4476 16.6183 61.5902 15.9927L62.4888 12.0967C62.6205 11.4733 63.2642 10.9505 63.9057 10.957L64.8669 10.9505C66.0074 10.957 66.8628 11.1473 67.446 11.5323C68.027 11.9173 68.3013 12.5211 68.3078 13.3217C68.3143 14.5423 67.8672 15.483 66.9772 16.1523Z" fill="#C4C0C0"/>
<path d="M98.8025 8.42183C98.9386 7.79402 98.5498 7.28433 97.9126 7.29308H95.2558C94.7114 7.29308 94.2211 7.70214 93.9814 8.20527L93.8345 8.43714L93.7006 9.03214L89.9875 26.1253L89.8666 26.6503L89.8709 26.6634C89.7478 27.2256 90.089 27.65 90.6161 27.7309L90.6614 27.7943H93.4198C93.9598 27.7943 94.4674 27.3787 94.6985 26.8668L94.841 26.6481L98.8111 8.42402L98.8025 8.42183Z" fill="#C4C0C0"/>
<path d="M53.9701 11.97C53.2681 11.9787 50.4147 11.97 50.4147 11.97C49.7754 11.97 48.9546 12.4928 48.5485 13.1162C48.5485 13.1162 44.3019 20.4968 43.8894 21.2384L43.3969 21.2318L42.075 13.1665C41.9281 12.5322 41.2736 11.9897 40.4593 11.9897L37.8025 11.994C37.1631 11.994 36.77 12.5103 36.9147 13.1403C36.9147 13.1403 38.9322 24.7668 39.3361 27.5034C39.524 29.0128 39.3123 29.2818 39.3123 29.2818L36.6858 33.915C36.297 34.545 36.5065 35.059 37.1437 35.059L40.2152 35.0547C40.8546 35.0547 41.6948 34.545 42.075 33.9128L53.8902 13.674C53.8902 13.674 55.0263 11.9459 53.9701 11.97Z" fill="#C4C0C0"/>
</g>
<defs>
<clipPath id="clip0_47_432">
<rect width="109" height="35" fill="white"/>
</clipPath>
</defs>
</svg>
