<svg width="140" height="24" viewBox="0 0 140 24" fill="none" xmlns="http://www.w3.org/2000/svg">
<g clip-path="url(#clip0_47_457)">
<g clip-path="url(#clip1_47_457)">
<g clip-path="url(#clip2_47_457)">
<path fill-rule="evenodd" clip-rule="evenodd" d="M25.2 10.6003C25.2 10.1336 24.9666 9.90028 24.5 9.90028H22.1666C21.4666 9.90028 21.2333 10.3669 21.2333 10.8336V15.0336C21.2333 15.7336 21.7 15.9669 22.1666 15.9669H24.5C24.7333 15.9669 24.7333 15.9669 24.9666 15.7336C25.2 15.7336 25.2 15.5003 25.2 15.2669V10.6003ZM18.2 10.1336C18.2 8.96694 18.4333 8.26694 18.9 7.56694C19.1333 7.33361 19.6 7.33361 19.8333 7.10028C20.3 6.86694 20.5333 6.86694 21 6.86694H25.4333C27.3 6.86694 28.2333 7.80028 28.2333 9.90028V16.4336C28.2333 17.1336 28 17.8336 27.3 18.3003C26.8333 18.7669 26.1333 19.2336 25.4333 19.2336H21.2333V23.9003H18.2V10.1336Z" fill="#C4C0C0"/>
<path fill-rule="evenodd" clip-rule="evenodd" d="M33.8334 15.5003C33.8334 15.5003 33.8334 15.7336 34.0667 15.7336C34.0667 15.9669 34.3 15.9669 34.5334 15.9669H36.8667C37.3334 15.9669 37.5667 15.7336 37.8 15.5003V14.5669C37.8 14.1003 37.3334 13.8669 36.8667 13.8669H34.5334C34.3 13.8669 34.0667 13.8669 33.8334 13.8669V14.5669V15.5003ZM37.8 10.6003C37.8 10.1336 37.3334 9.90028 36.8667 9.90028H30.8V6.86694H37.5667C39.6667 6.86694 40.6 7.80028 40.8334 9.66694V16.2003C40.6 17.1336 40.3667 17.8336 39.9 18.3003C39.4334 19.0003 38.7334 19.2336 38.0334 19.2336H33.8334C31.7334 19.2336 30.8 18.3003 30.8 16.4336V13.8669C30.8 12.0003 31.7334 11.0669 33.6 10.8336H37.8V10.6003Z" fill="#C4C0C0"/>
<path fill-rule="evenodd" clip-rule="evenodd" d="M49.2332 20.6336C49.4665 20.6336 49.6998 20.6336 49.9332 20.4003C50.1665 20.1669 50.1665 20.1669 50.1665 19.9336V19.7003V19.2336H46.1998C45.7332 19.2336 45.2665 19.0003 45.0332 19.0003C44.7998 18.7669 44.3332 18.5336 44.0998 18.3003C43.8665 18.0669 43.6332 17.6003 43.3998 17.3669C43.1665 16.9003 43.1665 16.4336 43.1665 15.9669V6.86694H46.1998V15.0336C46.1998 15.7336 46.4332 15.9669 47.1332 15.9669H49.2332C49.4665 15.9669 49.6998 15.9669 49.9332 15.7336C49.9332 15.7336 50.1665 15.5003 50.1665 15.2669V15.0336V6.86694H53.1998V20.4003C53.1998 21.3336 52.9665 22.2669 52.4998 22.9669C51.7998 23.4336 51.0998 23.9003 50.3998 23.9003H43.1665V20.6336H49.2332Z" fill="#C4C0C0"/>
<path fill-rule="evenodd" clip-rule="evenodd" d="M55.5332 15.9669H60.8999C61.3665 15.9669 61.8332 15.7336 61.8332 15.5003V15.2669C61.8332 15.0336 61.8332 15.0336 61.5999 14.8003C61.5999 14.5669 61.3665 14.5669 61.1332 14.5669H60.8999H58.5665C57.6332 14.5669 57.1665 14.3336 56.4665 13.6336C55.9999 13.1669 55.5332 12.7003 55.5332 12.0003V9.66694C55.5332 7.80028 56.6999 6.86694 58.5665 6.86694H64.8665V9.90028H59.4999C58.7999 9.90028 58.5665 10.1336 58.5665 10.6003V10.8336C58.5665 11.3003 58.7999 11.3003 59.4999 11.3003H62.2999C62.9999 11.5336 63.4665 11.7669 64.1665 12.2336C64.6332 12.7003 64.8665 13.4003 64.8665 14.1003V16.4336C64.8665 17.1336 64.6332 17.6003 63.9332 18.3003C63.6999 18.7669 63.4665 18.7669 63.2332 19.0003C62.7665 19.2336 62.5332 19.2336 61.8332 19.2336H55.5332V15.9669Z" fill="#C4C0C0"/>
<path fill-rule="evenodd" clip-rule="evenodd" d="M69.9999 15.5003L70.2332 15.7336C70.4666 15.9669 70.6999 15.9669 70.9332 15.9669H73.2666C73.7332 15.9669 73.9666 15.7336 73.9666 15.5003V14.5669C73.9666 14.1003 73.7332 13.8669 73.2666 13.8669H70.9332C70.4666 13.8669 70.4666 13.8669 70.2332 13.8669C70.2332 14.1003 69.9999 14.3336 69.9999 14.5669V15.5003ZM73.9666 10.6003C73.9666 10.1336 73.7332 9.90028 73.2666 9.90028H66.9666V6.86694H73.9666C76.0666 6.86694 76.9999 7.80028 76.9999 9.66694V16.2003C76.9999 17.1336 76.7666 17.8336 76.2999 18.3003C75.8332 19.0003 75.1332 19.2336 74.1999 19.2336H69.9999C68.1332 19.2336 66.9666 18.3003 66.9666 16.4336V13.8669C66.9666 12.0003 68.1332 11.0669 69.9999 10.8336H73.9666V10.6003Z" fill="#C4C0C0"/>
<path fill-rule="evenodd" clip-rule="evenodd" d="M79.5667 5.0002C79.5667 4.3002 79.8 3.6002 80.5 2.9002C80.9667 2.43353 81.9 2.2002 82.8333 2.2002H84.7V5.23353H83.5333C82.8333 5.23353 82.6 5.46686 82.6 6.16686V6.86686H84.7V9.90019H82.6V19.2335H79.5667V5.0002Z" fill="#C4C0C0"/>
<path fill-rule="evenodd" clip-rule="evenodd" d="M93.3333 10.6003V10.3669C93.3333 10.3669 93.3333 10.1336 93.1 10.1336C93.1 9.90028 92.8667 9.90028 92.6333 9.90028H90.5333C90.3 9.90028 90.0667 9.90028 89.8333 10.1336C89.6 10.3669 89.6 10.6003 89.6 10.8336V12.0003L93.3333 10.6003ZM89.6 15.0336V15.2669C89.6 15.5003 89.6 15.7336 89.8333 15.7336C89.8333 15.9669 90.0667 15.9669 90.3 15.9669H90.5333H96.3667V19.2336H89.8333C89.1333 19.2336 88.6667 19.0003 88.4333 19.0003C87.9667 18.7669 87.7333 18.7669 87.5 18.3003C87.0333 18.0669 86.8 17.8336 86.8 17.3669C86.5667 17.1336 86.5667 16.6669 86.5667 15.9669V9.66694C86.5667 7.80028 87.5 6.86694 89.6 6.86694H93.5667C95.4333 6.86694 96.3667 7.80028 96.6 9.90028V12.2336L89.6 15.0336Z" fill="#C4C0C0"/>
<path fill-rule="evenodd" clip-rule="evenodd" d="M102.9 19.2335C102.433 19.2335 101.967 19.2335 101.733 19.0002C101.267 19.0002 100.8 18.7669 100.567 18.5335C100.1 18.0669 99.8666 17.8335 99.6332 17.3669C99.3999 16.9002 99.3999 16.4335 99.3999 15.7335V9.90021C99.3999 9.43354 99.3999 8.96688 99.3999 8.73354C99.6332 8.26688 99.8666 8.03354 100.1 7.56688C100.567 7.33354 100.8 7.10021 101.267 6.86688C101.733 6.86688 102.2 6.63354 102.667 6.63354H107.333V7.56688H102.667C101.967 7.56688 101.267 7.56688 100.8 8.03354C100.333 8.26688 100.1 8.96688 100.1 9.90021V15.7335C100.1 15.9669 100.1 16.4335 100.333 16.9002C100.333 17.1335 100.567 17.6002 100.8 17.8335C101.267 18.0669 101.5 18.3002 101.967 18.3002C102.2 18.3002 102.667 18.5335 102.9 18.5335H107.333V19.2335H102.9Z" fill="#C4C0C0"/>
<path fill-rule="evenodd" clip-rule="evenodd" d="M119.233 11.5335H113.167C112.467 11.5335 111.767 11.7669 111.533 12.2335C111.067 12.7002 110.833 13.4002 110.833 14.1002V15.9669V16.9002C111.067 17.3669 111.067 17.6002 111.533 17.8335C112 18.3002 112.467 18.5335 113.167 18.5335H116.9C118.533 18.5335 119.233 17.6002 119.233 15.9669V11.5335ZM119.933 15.7335V17.1335C119.7 17.3669 119.7 17.8335 119.233 18.3002C118.533 18.7669 117.833 19.2335 116.9 19.2335H113.167C112.233 19.2335 111.533 19.0002 111.067 18.3002C110.367 17.8335 110.133 16.9002 110.133 15.9669V14.1002C110.133 12.0002 111.067 10.8335 113.167 10.8335H119.233V10.1335C119.233 9.43354 119 8.73354 118.767 8.26688C118.533 8.03354 118.067 7.80021 117.833 7.56688C117.367 7.56688 117.133 7.56688 116.667 7.56688H110.133V6.63354H116.433C116.9 6.63354 117.367 6.86688 117.833 6.86688C118.067 6.86688 118.3 7.10021 118.533 7.10021C118.767 7.33354 119 7.33354 119.233 7.80021C119.7 8.50021 119.933 9.20021 119.933 10.1335V15.7335Z" fill="#C4C0C0"/>
<path fill-rule="evenodd" clip-rule="evenodd" d="M126.933 7.56688C125.067 7.56688 124.367 8.50021 124.367 10.1335V19.2335H123.667V10.1335C123.667 7.80021 124.6 6.63354 126.933 6.63354H127.867V7.56688H126.933Z" fill="#C4C0C0"/>
<path fill-rule="evenodd" clip-rule="evenodd" d="M139.067 7.56675H133.467C133 7.56675 132.533 7.56675 132.3 7.56675C131.833 7.56675 131.6 7.80008 131.367 8.26675C130.9 8.50008 130.667 8.96675 130.667 9.20008C130.667 9.43342 130.433 9.90008 130.433 10.3667V15.9667C130.433 16.9001 130.9 17.6001 131.367 17.8334C131.6 18.0667 132.067 18.3001 132.3 18.3001C132.533 18.3001 133 18.5334 133.467 18.5334H136.033C136.967 18.5334 137.667 18.3001 138.133 17.8334C138.833 17.3667 139.067 16.6667 139.067 15.7334V7.56675ZM140 15.7334C139.767 18.0667 138.6 19.2334 136.033 19.2334H133.467C132.767 19.2334 132.3 19.2334 131.833 19.0001C131.367 19.0001 130.9 18.5334 130.667 18.3001C130.2 17.8334 129.967 17.3667 129.967 16.9001C129.733 16.6667 129.733 16.2001 129.733 15.5001V10.3667C129.733 7.80008 131.133 6.63341 133.467 6.63341H139.067V2.66675H140V15.7334Z" fill="#C4C0C0"/>
<path fill-rule="evenodd" clip-rule="evenodd" d="M1.40007 6.4001C1.6334 6.16676 1.86673 6.16676 2.10007 6.16676C2.56673 4.06676 4.4334 2.43343 6.5334 2.43343C8.86673 2.43343 10.7334 4.06676 10.9667 6.16676C11.6667 6.16676 12.3667 6.4001 12.8334 6.86676C12.8334 6.4001 12.8334 6.16676 12.8334 5.7001C12.3667 2.66676 9.80007 0.100098 6.5334 0.100098C3.26673 0.100098 0.466732 2.66676 0.233398 6.16676V6.86676C0.700065 6.63343 0.933398 6.4001 1.40007 6.4001Z" fill="#B3B3B3"/>
<path fill-rule="evenodd" clip-rule="evenodd" d="M10.2667 6.8667H2.8C2.33333 6.8667 2.1 6.8667 1.63333 7.10003C1.16667 7.33337 0.933333 7.33337 0.7 7.5667C0.233333 8.2667 0 8.9667 0 10.1334V15.9667C0 16.9 0.233333 17.8334 0.7 18.3C0.933333 18.5334 1.16667 18.7667 1.63333 19C2.1 19 2.33333 19.2334 2.8 19.2334H10.2667C12.1333 19.2334 13.0667 18.0667 13.0667 15.9667V9.90003C13.0667 7.80003 12.1333 6.8667 10.2667 6.8667Z" fill="#B3B3B3"/>
</g>
</g>
</g>
<defs>
<clipPath id="clip0_47_457">
<rect width="140" height="24" fill="white"/>
</clipPath>
<clipPath id="clip1_47_457">
<rect width="140" height="24" fill="white"/>
</clipPath>
<clipPath id="clip2_47_457">
<rect width="140" height="23.8" fill="white" transform="translate(0 0.100098)"/>
</clipPath>
</defs>
</svg>
