<svg width="70" height="24" viewBox="0 0 70 24" fill="none" xmlns="http://www.w3.org/2000/svg">
<g clip-path="url(#clip0_47_371)">
<g clip-path="url(#clip1_47_371)">
<g clip-path="url(#clip2_47_371)">
<path fill-rule="evenodd" clip-rule="evenodd" d="M0.00854492 8.40661C0.00854492 15.4756 8.37349 15.1221 9.66946 15.5934C11.3189 16.1825 11.2011 19.1279 7.43096 19.1279C5.42809 19.1279 3.77866 18.8922 1.8936 18.3032C1.42234 18.1853 0.951074 17.9497 0.479809 17.8319V23.1336C1.8936 23.8405 6.72406 23.9583 8.72694 23.9583C13.9108 23.9583 18.6235 20.4239 17.3275 15.1221C16.0315 9.34914 8.4913 9.93822 7.43096 9.34914C6.13498 8.76006 6.13498 7.11063 7.54877 6.52155C9.43383 5.69684 13.2039 6.52155 15.089 7.11063C15.6781 7.34627 16.2672 7.5819 16.7384 7.69972V2.63362C15.9137 2.39799 15.4425 2.16236 13.793 1.80891C11.4367 1.33765 10.4942 1.33765 8.13786 1.33765C3.89648 1.33765 0.00854492 4.16523 0.00854492 8.40661Z" fill="#C4C0C0"/>
<path fill-rule="evenodd" clip-rule="evenodd" d="M18.9771 2.51581V23.7227H25.1035V17.3606C25.2213 17.5963 25.1035 17.4785 25.2213 17.7141L25.8104 18.7744C26.046 19.2457 26.2816 19.717 26.5173 20.306C26.7529 20.8951 27.4598 23.0158 27.4598 23.7227H34.8822C34.7644 23.4871 34.6466 23.0158 34.5288 22.6624L33.115 19.4813C30.1696 13.4727 30.7587 16.6537 33.3506 11.5876C33.8219 10.8807 35.1179 8.17098 35.2357 7.22845H28.2845C28.0489 8.40661 25.8104 12.2945 25.1035 12.8836V1.33765C23.9253 1.33765 19.9196 2.51581 18.9771 2.51581Z" fill="#C4C0C0"/>
<path fill-rule="evenodd" clip-rule="evenodd" d="M55.6177 2.39799V23.7227H61.5085V1.33765C60.566 1.33765 56.9137 2.28018 55.6177 2.39799Z" fill="#C4C0C0"/>
<path fill-rule="evenodd" clip-rule="evenodd" d="M64.1006 2.39799V23.7227H69.9914V1.33765C69.2845 1.33765 64.8075 2.39799 64.1006 2.39799Z" fill="#C4C0C0"/>
<path fill-rule="evenodd" clip-rule="evenodd" d="M35.9424 14.2975V23.7228H41.8332V16.6538C41.8332 13.355 42.3045 12.059 45.6033 12.059V7.11071C44.543 7.11071 45.4855 6.9929 43.7182 7.11071C41.951 7.34634 40.655 7.34634 38.77 8.52451C37.1205 9.58485 35.9424 11.5877 35.9424 14.2975Z" fill="#C4C0C0"/>
<path fill-rule="evenodd" clip-rule="evenodd" d="M47.3706 23.7226H53.2614V7.34619H47.3706V23.7226Z" fill="#C4C0C0"/>
<path fill-rule="evenodd" clip-rule="evenodd" d="M47.4885 2.75148C47.4885 3.69401 47.6063 4.28309 48.3132 4.98999C50.9052 7.58194 55.0288 3.69401 52.319 0.866425C50.5517 -1.01863 47.4885 0.630793 47.4885 2.75148Z" fill="#C4C0C0"/>
</g>
</g>
</g>
<defs>
<clipPath id="clip0_47_371">
<rect width="70" height="24" fill="white"/>
</clipPath>
<clipPath id="clip1_47_371">
<rect width="70" height="24" fill="white"/>
</clipPath>
<clipPath id="clip2_47_371">
<rect width="70" height="23.9167" fill="white" transform="translate(0 0.041748)"/>
</clipPath>
</defs>
</svg>
