<svg width="78" height="24" viewBox="0 0 78 24" fill="none" xmlns="http://www.w3.org/2000/svg">
<g clip-path="url(#clip0_47_569)">
<g clip-path="url(#clip1_47_569)">
<g clip-path="url(#clip2_47_569)">
<path fill-rule="evenodd" clip-rule="evenodd" d="M27.5295 23.673L31.443 0.461914H37.7856L33.8721 23.673H27.5295Z" fill="#C4C0C0"/>
<path fill-rule="evenodd" clip-rule="evenodd" d="M56.6784 1.00177C55.4638 0.596921 53.5746 0.0571289 51.0106 0.0571289C44.8029 0.0571289 40.4846 3.16094 40.3497 7.74917C40.3497 10.9879 43.5884 12.8772 45.8825 13.9568C48.4465 15.1713 49.2562 15.8461 49.2562 16.9256C49.2562 18.4101 47.232 19.0848 45.4777 19.0848C42.9137 19.0848 41.5642 18.8149 39.54 17.8703L38.5953 17.6004L37.7856 22.7284C39.2701 23.4032 41.969 23.9429 44.8029 23.9429C51.4154 23.9429 55.7337 20.8391 55.8687 16.116C55.8687 13.417 54.1144 11.3928 50.4708 9.77339C48.3116 8.69381 46.9621 8.01907 46.9621 6.93948C46.9621 5.99485 48.1766 4.91526 50.6057 4.91526C52.6299 4.91526 54.1144 5.32011 55.3289 5.72495L55.8687 5.99485L56.6784 1.00177Z" fill="#C4C0C0"/>
<path fill-rule="evenodd" clip-rule="evenodd" d="M73.0071 0.461914H68.014C66.5296 0.461914 65.45 0.866758 64.7752 2.35119L55.3289 23.673H61.9413C61.9413 23.673 63.0209 20.8391 63.2908 20.1643H71.3877C71.6576 20.974 72.1974 23.673 72.1974 23.673H78.0001L73.0071 0.461914ZM65.1801 15.4412C65.7199 14.0917 67.6091 8.96364 67.6091 8.96364C67.6091 8.96364 68.1489 7.61416 68.5538 6.66953L68.9586 8.69375C68.9586 8.69375 70.1731 14.2266 70.443 15.4412H65.1801Z" fill="#C4C0C0"/>
<path fill-rule="evenodd" clip-rule="evenodd" d="M22.1316 0.461914L16.0589 16.2508L15.3842 13.0121C14.1696 9.36849 10.661 5.32005 6.61255 3.29582L12.2804 23.673H18.8928L28.879 0.461914H22.1316Z" fill="#C4C0C0"/>
<path fill-rule="evenodd" clip-rule="evenodd" d="M10.2561 0.461914H0.134948L0 1.00171C7.96194 2.89098 13.2249 7.47922 15.3841 13.0121L13.09 2.48614C12.8201 1.00171 11.6055 0.461914 10.2561 0.461914Z" fill="#C4C0C0"/>
</g>
</g>
</g>
<defs>
<clipPath id="clip0_47_569">
<rect width="78" height="24" fill="white"/>
</clipPath>
<clipPath id="clip1_47_569">
<rect width="78" height="24" fill="white"/>
</clipPath>
<clipPath id="clip2_47_569">
<rect width="78" height="23.92" fill="white" transform="translate(0 0.0400391)"/>
</clipPath>
</defs>
</svg>
